<svg xmlns:dc="http://purl.org/dc/elements/1.1/" xmlns:cc="http://creativecommons.org/ns#" xmlns:rdf="http://www.w3.org/1999/02/22-rdf-syntax-ns#" xmlns:svg="http://www.w3.org/2000/svg" xmlns="http://www.w3.org/2000/svg" xmlns:sodipodi="http://sodipodi.sourceforge.net/DTD/sodipodi-0.dtd" xmlns:inkscape="http://www.inkscape.org/namespaces/inkscape" version="1.1" x="0px" y="0px" viewBox="0 0 100 100"><g transform="translate(0,-952.36218)"><path d="m 29,958.36218 c -2.75271,0 -5,2.2473 -5,5 l 0,78.00002 c 0,2.7527 2.24729,5 5,5 l 42,0 c 2.75271,0 5,-2.2473 5,-5 l 0,-78.00002 c 0,-2.7527 -2.24729,-5 -5,-5 z m 0,2 42,0 c 1.67931,0 3,1.3207 3,3 l 0,5 -48,0 0,-5 c 0,-1.6793 1.32069,-3 3,-3 z m -3,10 48,0 0,60.00002 -48,0 z m 27.90625,17.96874 c -0.34959,0.0364 -0.67156,0.2717 -0.8125,0.5937 l -10,21.99998 c -0.24017,0.4769 -0.0129,1.1312 0.47117,1.3566 0.48407,0.2253 1.13105,-0.022 1.34133,-0.5129 l 10,-21.99998 c 0.31466,-0.63752 -0.29284,-1.51075 -1,-1.4374 z m -14,4 c -0.25613,0.0339 -0.497,0.17155 -0.65625,0.375 l -6,7.00005 c -0.2969,0.35593 -0.2969,0.92523 0,1.28123 l 6,6.9999 c 0.2981,0.4964 1.06663,0.6216 1.50691,0.2456 0.44027,-0.3761 0.43675,-1.1547 -0.007,-1.5268 l -5.4375,-6.3437 5.4375,-6.37508 c 0.525,-0.59704 -0.0521,-1.7299 -0.84375,-1.6562 z m 19.96875,0 c -0.71891,0.0892 -1.10576,1.1143 -0.625,1.6562 l 5.4375,6.37508 -5.4375,6.3437 c -0.44366,0.3721 -0.44718,1.1507 -0.007,1.5268 0.44028,0.376 1.20881,0.2508 1.50691,-0.2456 l 6,-6.9999 c 0.2969,-0.356 0.2969,-0.9253 0,-1.28123 l -6,-7.00005 c -0.20534,-0.25924 -0.54565,-0.40509 -0.875,-0.375 z M 26,1032.3622 l 48,0 0,9 c 0,1.6793 -1.32069,3 -3,3 l -42,0 c -1.67931,0 -3,-1.3207 -3,-3 z m 18,5 c -0.5523,0 -1,0.4477 -1,1 0,0.5523 0.4477,1 1,1 l 12,0 c 0.5523,0 1,-0.4477 1,-1 0,-0.5523 -0.4477,-1 -1,-1 z" style="text-indent:0;text-transform:none;direction:ltr;block-progression:tb;baseline-shift:baseline;color:#000000;enable-background:accumulate;" fill="#000000" fill-opacity="1" stroke="none" marker="none" visibility="visible" display="inline" overflow="visible"></path></g></svg>